<svg xmlns="http://www.w3.org/2000/svg" viewBox="0 0 432 218"><g transform="translate(0.000000,218.000000) scale(0.025000,-0.025000)"
fill="currentColor" stroke="none">
<path d="M5595 8071 c-11 -4 -58 -14 -105 -21 -47 -7 -111 -21 -143 -31 -31
-11 -67 -19 -78 -19 -12 0 -35 -7 -52 -15 -18 -8 -52 -21 -77 -30 -94 -34
-118 -45 -232 -104 -64 -33 -149 -81 -189 -108 -39 -26 -80 -53 -90 -59 -11
-6 -34 -24 -52 -40 -18 -16 -61 -54 -97 -84 -85 -71 -98 -84 -153 -153 -30
-37 -45 -63 -40 -71 20 -35 173 -186 187 -186 9 0 60 43 114 96 53 53 120 111
149 130 28 19 57 41 63 49 7 8 18 15 25 15 6 0 20 9 30 20 10 11 22 20 26 20
5 0 23 10 41 23 29 19 132 71 223 113 43 19 112 44 170 60 28 8 61 19 75 24
23 10 63 17 270 51 94 16 487 6 570 -14 36 -8 88 -20 115 -25 71 -15 155 -40
192 -57 17 -8 36 -15 42 -15 10 0 197 -90 236 -114 151 -91 295 -217 379 -328
16 -22 37 -38 48 -38 28 0 198 157 198 182 0 28 -101 147 -213 253 -97 91
-189 165 -206 165 -5 0 -14 7 -21 16 -8 8 -27 22 -44 29 -32 15 -52 27 -98 57
-15 10 -34 18 -41 18 -8 0 -26 9 -40 20 -14 11 -31 20 -37 20 -7 0 -31 8 -54
19 -49 22 -128 49 -176 61 -19 5 -60 15 -90 24 -166 44 -220 50 -515 53 -159
1 -299 -1 -310 -6z M5605 7178 c-135 -31 -293 -95 -383 -155 -18 -13 -35 -23
-38 -23 -3 0 -37 -26 -77 -57 -100 -79 -177 -161 -170 -182 6 -15 49 -66 139
-163 19 -21 41 -38 50 -38 8 0 41 26 73 58 58 58 77 73 141 114 62 40 210 108
234 108 9 0 49 9 89 20 109 31 318 29 447 -4 100 -25 183 -55 228 -83 123 -75
197 -134 218 -174 8 -16 21 -29 29 -29 19 0 201 149 210 172 8 21 -25 68 -104
148 -84 84 -145 128 -256 183 -134 67 -153 74 -340 117 -22 5 -121 9 -220 9
-144 -1 -198 -5 -270 -21z M5725 6361 c-117 -24 -224 -103 -274 -205 l-32 -65
-797 -3 -797 -3 -47 -28 c-79 -48 -178 -163 -178 -209 0 -7 -8 -26 -18 -43
-15 -27 -17 -68 -20 -358 -2 -202 1 -333 7 -340 15 -19 219 -13 238 6 12 12
15 57 14 275 -2 276 5 338 43 381 47 53 -3 51 1236 51 827 0 1164 -3 1196 -11
36 -9 51 -20 72 -53 l27 -41 3 -299 c2 -165 7 -305 12 -311 13 -16 219 -11
236 7 12 12 15 66 15 304 0 380 -13 439 -123 559 -71 78 -124 105 -213 112
l-74 6 -27 54 c-41 80 -110 146 -190 183 -60 28 -82 32 -169 35 -55 2 -118 0
-140 -4z M9929 5414 c-5 -7 -8 -518 -7 -1275 l3 -1264 115 0 115 0 6 487 c4
267 10 499 14 515 5 15 9 39 10 53 4 61 27 165 40 184 8 11 15 27 15 35 0 16
51 95 101 158 46 56 151 138 209 164 14 6 41 18 60 27 25 12 75 17 177 20 152
4 137 7 263 -51 69 -32 190 -201 190 -264 0 -11 8 -40 17 -64 15 -39 17 -115
22 -654 l6 -610 109 -3 c76 -2 113 1 123 10 14 11 15 84 11 623 -5 591 -6 613
-28 705 -20 88 -50 173 -71 210 -5 8 -18 31 -28 51 -35 64 -194 209 -229 209
-4 0 -19 8 -32 18 -14 9 -45 22 -70 29 -25 6 -63 16 -85 22 -49 13 -225 13
-280 1 -188 -43 -316 -114 -467 -258 -31 -30 -61 -51 -67 -48 -8 5 -11 149
-11 486 0 363 -3 481 -12 486 -20 12 -209 10 -219 -2z M16251 5387 c-7 -9 -12
-119 -13 -338 l-3 -324 -144 -3 c-86 -1 -150 -7 -158 -14 -18 -14 -18 -193 -1
-204 7 -5 75 -7 150 -6 99 1 139 -2 145 -11 4 -7 10 -372 13 -812 l5 -800 109
-3 c71 -2 113 1 122 9 12 10 14 138 14 805 0 792 0 793 21 804 13 7 75 11 170
9 186 -3 184 -5 180 113 -1 46 -7 88 -12 93 -5 6 -87 12 -182 15 l-172 5 -3
325 c-2 291 -4 326 -19 338 -24 17 -207 17 -222 -1z M1205 4739 c-149 -62
-238 -138 -295 -255 -34 -69 -34 -69 -34 -214 0 -157 5 -176 76 -286 41 -64
188 -182 288 -231 14 -7 32 -17 40 -22 8 -5 26 -14 40 -20 14 -6 43 -22 65
-36 22 -13 50 -29 63 -34 12 -6 28 -15 35 -21 6 -6 31 -25 54 -43 87 -67 121
-152 108 -268 -6 -49 -14 -69 -46 -110 -134 -169 -362 -182 -548 -32 -25 21
-59 50 -74 65 -16 16 -32 28 -37 28 -4 0 -40 -36 -80 -81 -82 -93 -82 -98 -11
-168 93 -93 239 -164 361 -177 36 -4 72 -10 81 -15 25 -13 207 19 274 48 132
57 230 156 291 293 28 62 29 72 28 205 0 138 0 141 -34 210 -55 112 -184 229
-355 321 -222 119 -280 157 -328 216 -41 51 -77 129 -77 168 0 71 64 164 144
210 47 26 63 30 130 30 107 0 205 -44 329 -147 16 -12 34 -23 41 -23 18 0 146
133 146 152 0 16 -104 117 -146 141 -167 96 -204 108 -354 112 -109 4 -131 2
-175 -16z M2905 4736 c-163 -49 -250 -101 -377 -224 -48 -46 -92 -81 -98 -77
-6 4 -10 57 -10 135 0 153 2 150 -115 150 -129 0 -115 116 -115 -923 0 -689 3
-906 12 -915 14 -14 185 -17 206 -3 11 6 14 81 17 357 4 500 17 771 38 811 9
18 17 39 17 48 0 29 64 144 110 196 80 90 183 172 240 190 14 4 43 15 65 23
28 10 79 15 165 16 112 0 131 -3 192 -27 109 -42 195 -137 240 -265 34 -97 39
-198 44 -792 3 -431 6 -551 16 -558 7 -4 61 -8 120 -8 97 0 108 2 118 20 11
20 7 926 -5 1100 -18 277 -72 433 -192 561 -94 100 -175 149 -307 188 -97 29
-281 28 -381 -3z M4860 4749 c-169 -41 -240 -64 -280 -92 -13 -9 -28 -17 -31
-17 -4 0 -38 -20 -76 -46 -89 -59 -203 -172 -261 -259 -50 -74 -132 -235 -132
-258 0 -8 -9 -43 -20 -77 -29 -92 -29 -366 0 -466 59 -202 118 -308 247 -451
64 -69 245 -203 276 -203 7 0 21 -6 32 -14 32 -22 164 -63 245 -76 151 -24
338 -10 475 36 134 44 282 132 358 212 40 42 66 53 68 30 1 -7 0 -56 -1 -109
-1 -74 2 -98 13 -107 10 -9 48 -12 123 -10 l109 3 3 917 c2 787 0 919 -12 931
-22 21 -206 12 -224 -12 -9 -11 -13 -45 -12 -106 2 -114 2 -115 -11 -115 -6 0
-39 24 -72 54 -150 130 -280 193 -492 237 -51 10 -279 9 -325 -2z m318 -223
l52 -17 0 -210 c0 -246 -7 -274 -61 -259 -18 5 -39 16 -48 23 -9 8 -23 17 -31
20 -8 4 -37 20 -65 37 -27 16 -62 34 -77 41 -16 6 -28 14 -28 18 0 5 -17 15
-37 24 -21 9 -56 28 -78 41 -22 14 -53 32 -70 40 -16 9 -48 27 -70 40 -22 14
-55 31 -72 40 -18 8 -33 19 -33 25 0 13 50 53 90 72 19 9 51 24 71 33 19 10
73 26 120 36 101 23 256 21 337 -4z m247 -106 c10 -11 23 -20 30 -20 22 0 170
-160 212 -229 66 -108 105 -220 85 -244 -7 -8 -100 -59 -208 -112 -140 -71
-198 -95 -206 -87 -7 7 -9 63 -5 174 2 90 7 240 9 333 3 94 8 178 12 188 11
23 49 22 71 -3z m-892 -120 c14 -11 30 -20 35 -20 5 0 15 -7 22 -15 7 -8 24
-21 39 -29 14 -7 40 -21 57 -30 18 -9 37 -23 44 -31 7 -8 17 -15 22 -15 17 0
108 -63 108 -74 0 -17 -13 -30 -40 -44 -14 -7 -42 -23 -62 -35 -105 -63 -384
-225 -416 -241 -20 -11 -43 -26 -50 -33 -19 -18 -61 -16 -69 3 -10 27 17 203
43 280 13 38 36 92 51 118 15 26 33 56 39 67 6 11 31 42 55 69 49 56 80 63
122 30z m160 -610 c-2 -69 -5 -230 -7 -359 -3 -128 -7 -240 -10 -248 -7 -18
-42 -9 -72 18 -11 11 -24 19 -28 19 -10 0 -100 73 -136 109 -42 42 -104 133
-132 191 -45 95 -66 153 -61 167 6 16 80 59 225 133 59 30 127 65 150 77 72
37 73 35 71 -107z m1087 105 c10 -12 10 -30 0 -87 -6 -40 -15 -96 -20 -125 -4
-28 -15 -64 -23 -80 -8 -15 -30 -59 -48 -97 -38 -76 -135 -199 -162 -204 -14
-3 -104 50 -172 101 -30 23 -87 57 -94 57 -4 0 -16 9 -26 20 -10 11 -22 20
-26 20 -18 0 -78 46 -79 60 0 14 72 60 94 60 5 0 17 6 25 14 9 7 43 28 76 45
33 17 67 36 75 41 8 5 35 20 60 33 108 57 166 90 175 98 5 5 15 9 22 9 6 0 29
11 49 25 43 29 57 31 74 10z m-940 -294 c0 -5 14 -17 30 -25 48 -25 82 -45
130 -76 25 -16 74 -46 108 -67 35 -21 79 -47 97 -58 18 -11 63 -37 99 -58 36
-21 68 -43 72 -48 3 -5 14 -9 25 -9 25 0 36 -27 18 -45 -20 -19 -109 -66 -144
-75 -16 -5 -50 -16 -74 -25 -37 -13 -77 -16 -217 -13 -154 3 -174 5 -194 23
-16 14 -19 25 -14 45 4 14 8 63 9 110 4 123 16 303 20 318 5 14 35 17 35 3z
M7180 4750 c-123 -31 -153 -41 -220 -74 -104 -50 -206 -128 -277 -209 -56 -66
-63 -55 -63 98 0 123 -2 135 -19 145 -28 14 -183 13 -204 -2 -16 -12 -17 -105
-17 -1297 -1 -1033 2 -1286 12 -1293 17 -10 199 -10 216 1 11 6 13 104 12 509
0 338 3 503 10 507 6 3 23 -6 39 -22 44 -44 173 -147 201 -161 14 -7 48 -25
75 -41 28 -16 58 -30 68 -30 10 -1 32 -8 49 -17 37 -19 304 -55 333 -44 11 4
54 10 95 14 102 9 249 60 345 119 52 32 166 131 219 190 56 64 146 193 146
211 0 5 9 27 19 50 59 127 66 168 66 391 0 197 -2 214 -25 280 -58 167 -135
296 -250 416 -34 34 -153 125 -198 149 -21 11 -44 24 -52 29 -19 11 -109 43
-185 66 -67 21 -333 31 -395 15z m250 -240 c105 -20 167 -44 281 -106 58 -31
165 -143 213 -223 77 -128 107 -223 113 -363 5 -100 2 -126 -16 -186 -11 -39
-21 -76 -21 -84 0 -11 -28 -69 -71 -148 -30 -54 -111 -147 -166 -190 -129
-100 -278 -153 -438 -154 -82 0 -217 24 -263 47 -71 36 -138 72 -147 79 -5 4
-35 28 -66 52 -102 81 -188 225 -220 368 -24 109 -26 276 -4 338 8 23 15 52
15 64 1 11 9 39 20 61 11 22 19 44 20 49 0 17 90 142 133 188 23 24 65 59 92
78 28 19 52 38 55 41 19 22 153 70 245 88 55 11 170 12 225 1z M8900 4750
c-90 -22 -163 -59 -227 -117 -39 -35 -113 -131 -113 -146 -1 -7 -9 -30 -20
-52 -16 -33 -19 -62 -20 -159 0 -106 3 -127 26 -185 14 -35 36 -81 49 -101 46
-73 192 -185 338 -260 82 -42 123 -64 158 -88 151 -99 175 -126 203 -233 18
-66 18 -67 -4 -125 -42 -112 -122 -184 -238 -212 -54 -13 -74 -14 -139 -3
-103 17 -174 55 -260 139 -51 49 -77 53 -106 15 -12 -16 -41 -49 -64 -74 -24
-25 -43 -53 -43 -61 0 -18 81 -105 124 -134 109 -72 207 -110 324 -125 268
-34 485 73 604 298 66 125 66 329 0 463 -45 92 -204 234 -332 297 -14 7 -32
17 -40 21 -22 13 -61 34 -95 51 -66 33 -157 103 -218 168 -108 114 -65 295 88
372 43 21 56 23 139 18 71 -4 102 -11 141 -32 70 -36 83 -45 142 -92 28 -24
58 -43 67 -43 33 0 151 140 141 168 -4 15 -105 103 -145 127 -52 31 -141 75
-152 75 -7 0 -26 7 -43 16 -34 19 -227 29 -285 14z M12585 4753 c-96 -21 -178
-44 -204 -57 -16 -9 -36 -16 -43 -16 -17 0 -128 -71 -193 -124 -52 -43 -119
-113 -148 -156 -9 -14 -29 -43 -44 -65 -44 -63 -100 -185 -129 -280 -22 -71
-32 -387 -15 -458 30 -125 41 -159 77 -232 21 -44 60 -112 86 -152 48 -70 205
-229 252 -255 146 -79 252 -115 366 -124 47 -4 92 -10 100 -14 24 -13 288 17
365 41 156 49 275 121 386 236 91 94 189 239 189 280 0 7 -15 19 -32 28 -34
15 -53 26 -100 57 -39 26 -82 24 -95 -4 -6 -13 -31 -50 -56 -83 -137 -180
-265 -264 -472 -306 -112 -23 -180 -24 -270 -3 -72 16 -196 61 -205 73 -3 4
-31 24 -63 44 -31 21 -81 68 -111 105 -47 59 -65 89 -123 204 -17 33 -44 166
-46 223 l-2 40 805 5 c448 3 811 9 819 14 21 14 7 230 -19 297 -11 27 -20 57
-20 65 0 30 -90 196 -139 257 -60 76 -161 173 -221 213 -60 40 -215 114 -239
114 -11 0 -48 9 -83 20 -52 16 -89 20 -208 19 -80 -1 -154 -3 -165 -6z m345
-258 c30 -9 69 -23 85 -31 17 -7 42 -18 57 -23 43 -16 171 -115 203 -157 51
-66 85 -118 85 -131 0 -7 9 -29 19 -50 32 -63 36 -100 12 -113 -15 -7 -210
-10 -658 -8 l-638 3 1 30 c3 66 83 218 156 296 64 68 217 169 258 169 8 0 42
9 75 20 50 17 80 19 175 16 70 -2 136 -10 170 -21z M14680 4740 c-30 -10 -66
-19 -78 -19 -13 -1 -36 -7 -50 -15 -15 -8 -56 -29 -92 -46 -122 -59 -234 -157
-326 -285 -47 -67 -134 -233 -134 -258 0 -8 -10 -43 -21 -78 -19 -56 -22 -87
-22 -254 -1 -205 3 -227 71 -389 63 -152 176 -304 290 -390 130 -99 287 -162
430 -172 48 -4 94 -10 102 -15 27 -13 328 27 400 54 112 42 150 59 150 67 0 5
10 12 23 16 38 12 167 124 231 202 59 72 136 195 136 219 0 6 -34 28 -74 47
-41 20 -78 41 -81 46 -3 6 -19 10 -35 10 -27 0 -53 -29 -81 -90 -13 -28 -121
-143 -168 -180 -128 -101 -340 -169 -490 -157 -132 11 -213 36 -331 102 -84
48 -222 210 -252 298 -7 17 -17 43 -25 57 -7 14 -13 35 -13 46 0 12 -7 41 -15
64 -8 23 -15 64 -15 91 l0 49 801 0 c561 0 806 3 821 11 19 10 20 16 13 117
-4 59 -16 133 -26 165 -10 33 -19 66 -19 73 0 23 -89 196 -130 254 -46 63
-205 220 -225 220 -7 0 -18 6 -24 14 -24 28 -158 87 -271 118 -110 31 -391 35
-470 8z m360 -236 c30 -8 72 -19 93 -23 21 -5 46 -16 56 -25 9 -9 24 -16 33
-16 8 0 27 -9 41 -20 14 -11 30 -20 36 -20 16 0 165 -150 184 -185 16 -30 22
-43 58 -121 27 -58 25 -102 -3 -109 -13 -3 -306 -4 -652 -3 -714 3 -666 -3
-627 84 64 139 97 190 170 262 58 58 132 112 152 112 7 0 20 7 30 16 10 9 35
20 56 26 21 5 61 16 88 23 70 19 219 18 285 -1z M3569 2416 c-5 -6 -9 -270 -9
-680 l0 -671 28 -67 c47 -115 150 -219 244 -244 44 -12 249 -14 1265 -14 1256
0 1282 1 1350 41 50 31 139 133 169 196 l28 58 4 316 c3 268 1 317 -11 328
-10 8 -49 11 -123 9 l-109 -3 -5 -270 c-5 -255 -7 -273 -28 -317 -40 -84 66
-78 -1269 -78 -1364 0 -1232 -10 -1271 97 -22 59 -22 69 -22 669 0 339 -4 615
-9 623 -11 17 -216 22 -232 7z M4980 1961 c-80 -26 -158 -100 -196 -186 -23
-54 -26 -69 -21 -145 3 -58 11 -96 24 -120 57 -103 73 -120 160 -164 106 -53
241 -28 336 63 62 60 88 116 97 209 13 128 -38 235 -144 305 -53 36 -63 39
-144 43 -48 2 -98 0 -112 -5z"/>
</g>
</svg>
